<?xml version="1.0" encoding="UTF-8"?>
<!DOCTYPE svg PUBLIC "-//W3C//DTD SVG 1.1//EN" "http://www.w3.org/Graphics/SVG/1.1/DTD/svg11.dtd">
<svg xmlns="http://www.w3.org/2000/svg" version="1.1" width="1185px" height="596px" style="shape-rendering:geometricPrecision; text-rendering:geometricPrecision; image-rendering:optimizeQuality; fill-rule:evenodd; clip-rule:evenodd" xmlns:xlink="http://www.w3.org/1999/xlink">
<g><path style="opacity:1" fill="#131748" d="M -0.5,-0.5 C 394.5,-0.5 789.5,-0.5 1184.5,-0.5C 1184.5,198.167 1184.5,396.833 1184.5,595.5C 789.5,595.5 394.5,595.5 -0.5,595.5C -0.5,396.833 -0.5,198.167 -0.5,-0.5 Z"/></g>
<g><path style="opacity:1" fill="#0a0101" d="M 650.5,174.5 C 632.833,174.5 615.167,174.5 597.5,174.5C 578.167,174.5 558.833,174.5 539.5,174.5C 539.5,168.167 539.5,161.833 539.5,155.5C 576.5,155.5 613.5,155.5 650.5,155.5C 650.5,161.833 650.5,168.167 650.5,174.5 Z"/></g>
<g><path style="opacity:1" fill="#000000" d="M 937.5,174.5 C 920.167,174.5 902.833,174.5 885.5,174.5C 885.5,168.167 885.5,161.833 885.5,155.5C 902.833,155.5 920.167,155.5 937.5,155.5C 937.5,161.833 937.5,168.167 937.5,174.5 Z"/></g>
<g><path style="opacity:1" fill="#a89697" d="M 539.5,174.5 C 558.833,174.5 578.167,174.5 597.5,174.5C 597.5,183.5 597.5,192.5 597.5,201.5C 578.167,201.5 558.833,201.5 539.5,201.5C 539.5,192.5 539.5,183.5 539.5,174.5 Z"/></g>
<g><path style="opacity:1" fill="#fefffe" d="M 597.5,174.5 C 615.167,174.5 632.833,174.5 650.5,174.5C 650.5,183.5 650.5,192.5 650.5,201.5C 670.5,201.5 690.5,201.5 710.5,201.5C 710.5,212.167 710.5,222.833 710.5,233.5C 747.5,233.5 784.5,233.5 821.5,233.5C 821.5,222.833 821.5,212.167 821.5,201.5C 842.833,201.5 864.167,201.5 885.5,201.5C 885.5,192.5 885.5,183.5 885.5,174.5C 902.833,174.5 920.167,174.5 937.5,174.5C 937.5,228.167 937.5,281.833 937.5,335.5C 920.167,335.5 902.833,335.5 885.5,335.5C 885.5,344.167 885.5,352.833 885.5,361.5C 864.167,361.5 842.833,361.5 821.5,361.5C 821.5,400.167 821.5,438.833 821.5,477.5C 805.167,477.5 788.833,477.5 772.5,477.5C 772.5,457.833 772.5,438.167 772.5,418.5C 751.833,418.5 731.167,418.5 710.5,418.5C 710.5,438.167 710.5,457.833 710.5,477.5C 672.833,477.5 635.167,477.5 597.5,477.5C 597.5,466.5 597.5,455.5 597.5,444.5C 578.167,444.5 558.833,444.5 539.5,444.5C 539.5,435.833 539.5,427.167 539.5,418.5C 518.167,418.5 496.833,418.5 475.5,418.5C 475.5,438.167 475.5,457.833 475.5,477.5C 463.5,477.5 451.5,477.5 439.5,477.5C 439.5,466.5 439.5,455.5 439.5,444.5C 415.167,444.5 390.833,444.5 366.5,444.5C 366.5,427.167 366.5,409.833 366.5,392.5C 346.167,392.5 325.833,392.5 305.5,392.5C 305.5,382.167 305.5,371.833 305.5,361.5C 350.167,361.5 394.833,361.5 439.5,361.5C 439.5,352.833 439.5,344.167 439.5,335.5C 472.833,335.5 506.167,335.5 539.5,335.5C 539.5,318.833 539.5,302.167 539.5,285.5C 539.5,275.833 539.5,266.167 539.5,256.5C 558.833,256.5 578.167,256.5 597.5,256.5C 597.5,248.833 597.5,241.167 597.5,233.5C 597.5,222.833 597.5,212.167 597.5,201.5C 597.5,192.5 597.5,183.5 597.5,174.5 Z"/></g>
<g><path style="opacity:1" fill="#050605" d="M 650.5,174.5 C 670.5,174.5 690.5,174.5 710.5,174.5C 710.5,183.5 710.5,192.5 710.5,201.5C 690.5,201.5 670.5,201.5 650.5,201.5C 650.5,192.5 650.5,183.5 650.5,174.5 Z"/></g>
<g><path style="opacity:1" fill="#010201" d="M 885.5,174.5 C 885.5,183.5 885.5,192.5 885.5,201.5C 864.167,201.5 842.833,201.5 821.5,201.5C 821.5,192.5 821.5,183.5 821.5,174.5C 842.833,174.5 864.167,174.5 885.5,174.5 Z"/></g>
<g><path style="opacity:1" fill="#010000" d="M 937.5,174.5 C 960.167,174.5 982.833,174.5 1005.5,174.5C 1005.5,228.167 1005.5,281.833 1005.5,335.5C 982.833,335.5 960.167,335.5 937.5,335.5C 937.5,281.833 937.5,228.167 937.5,174.5 Z"/></g>
<g><path style="opacity:1" fill="#120000" d="M 539.5,174.5 C 539.5,183.5 539.5,192.5 539.5,201.5C 539.5,212.167 539.5,222.833 539.5,233.5C 539.5,241.167 539.5,248.833 539.5,256.5C 539.5,266.167 539.5,275.833 539.5,285.5C 518.167,285.5 496.833,285.5 475.5,285.5C 475.5,248.5 475.5,211.5 475.5,174.5C 496.833,174.5 518.167,174.5 539.5,174.5 Z"/></g>
<g><path style="opacity:1" fill="#b3a0a1" d="M 539.5,201.5 C 558.833,201.5 578.167,201.5 597.5,201.5C 597.5,212.167 597.5,222.833 597.5,233.5C 578.167,233.5 558.833,233.5 539.5,233.5C 539.5,222.833 539.5,212.167 539.5,201.5 Z"/></g>
<g><path style="opacity:1" fill="#010101" d="M 710.5,201.5 C 747.5,201.5 784.5,201.5 821.5,201.5C 821.5,212.167 821.5,222.833 821.5,233.5C 784.5,233.5 747.5,233.5 710.5,233.5C 710.5,222.833 710.5,212.167 710.5,201.5 Z"/></g>
<g><path style="opacity:1" fill="#b1999b" d="M 539.5,233.5 C 558.833,233.5 578.167,233.5 597.5,233.5C 597.5,241.167 597.5,248.833 597.5,256.5C 578.167,256.5 558.833,256.5 539.5,256.5C 539.5,248.833 539.5,241.167 539.5,233.5 Z"/></g>
<g><path style="opacity:1" fill="#000301" d="M 248.5,285.5 C 233.5,285.5 218.5,285.5 203.5,285.5C 203.5,275.833 203.5,266.167 203.5,256.5C 218.5,256.5 233.5,256.5 248.5,256.5C 248.5,266.167 248.5,275.833 248.5,285.5 Z"/></g>
<g><path style="opacity:1" fill="#000200" d="M 203.5,285.5 C 203.5,295.5 203.5,305.5 203.5,315.5C 179.833,315.5 156.167,315.5 132.5,315.5C 132.5,305.5 132.5,295.5 132.5,285.5C 156.167,285.5 179.833,285.5 203.5,285.5 Z"/></g>
<g><path style="opacity:1" fill="#fefffe" d="M 203.5,285.5 C 218.5,285.5 233.5,285.5 248.5,285.5C 248.5,295.5 248.5,305.5 248.5,315.5C 233.5,315.5 218.5,315.5 203.5,315.5C 203.5,305.5 203.5,295.5 203.5,285.5 Z"/></g>
<g><path style="opacity:1" fill="#000100" d="M 248.5,285.5 C 267.5,285.5 286.5,285.5 305.5,285.5C 305.5,295.5 305.5,305.5 305.5,315.5C 286.5,315.5 267.5,315.5 248.5,315.5C 248.5,305.5 248.5,295.5 248.5,285.5 Z"/></g>
<g><path style="opacity:1" fill="#030000" d="M 475.5,285.5 C 496.833,285.5 518.167,285.5 539.5,285.5C 539.5,302.167 539.5,318.833 539.5,335.5C 506.167,335.5 472.833,335.5 439.5,335.5C 439.5,328.833 439.5,322.167 439.5,315.5C 451.5,315.5 463.5,315.5 475.5,315.5C 475.5,305.5 475.5,295.5 475.5,285.5 Z"/></g>
<g><path style="opacity:1" fill="#29221f" d="M 650.5,285.5 C 670.5,285.5 690.5,285.5 710.5,285.5C 710.5,295.5 710.5,305.5 710.5,315.5C 690.5,315.5 670.5,315.5 650.5,315.5C 650.5,305.5 650.5,295.5 650.5,285.5 Z"/></g>
<g><path style="opacity:1" fill="#262321" d="M 821.5,315.5 C 821.5,305.5 821.5,295.5 821.5,285.5C 842.833,285.5 864.167,285.5 885.5,285.5C 885.5,295.5 885.5,305.5 885.5,315.5C 864.167,315.5 842.833,315.5 821.5,315.5 Z"/></g>
<g><path style="opacity:1" fill="#000100" d="M 203.5,315.5 C 218.5,315.5 233.5,315.5 248.5,315.5C 248.5,330.833 248.5,346.167 248.5,361.5C 233.5,361.5 218.5,361.5 203.5,361.5C 203.5,346.167 203.5,330.833 203.5,315.5 Z"/></g>
<g><path style="opacity:1" fill="#fefffe" d="M 248.5,315.5 C 267.5,315.5 286.5,315.5 305.5,315.5C 305.5,330.833 305.5,346.167 305.5,361.5C 286.5,361.5 267.5,361.5 248.5,361.5C 248.5,346.167 248.5,330.833 248.5,315.5 Z"/></g>
<g><path style="opacity:1" fill="#020202" d="M 305.5,315.5 C 325.833,315.5 346.167,315.5 366.5,315.5C 366.5,322.167 366.5,328.833 366.5,335.5C 390.833,335.5 415.167,335.5 439.5,335.5C 439.5,344.167 439.5,352.833 439.5,361.5C 394.833,361.5 350.167,361.5 305.5,361.5C 305.5,346.167 305.5,330.833 305.5,315.5 Z"/></g>
<g><path style="opacity:1" fill="#a39f9b" d="M 821.5,315.5 C 821.5,322.167 821.5,328.833 821.5,335.5C 805.167,335.5 788.833,335.5 772.5,335.5C 772.5,328.833 772.5,322.167 772.5,315.5C 788.833,315.5 805.167,315.5 821.5,315.5 Z"/></g>
<g><path style="opacity:1" fill="#090604" d="M 937.5,335.5 C 937.5,344.167 937.5,352.833 937.5,361.5C 920.167,361.5 902.833,361.5 885.5,361.5C 885.5,352.833 885.5,344.167 885.5,335.5C 902.833,335.5 920.167,335.5 937.5,335.5 Z"/></g>
<g><path style="opacity:1" fill="#020302" d="M 248.5,361.5 C 267.5,361.5 286.5,361.5 305.5,361.5C 305.5,371.833 305.5,382.167 305.5,392.5C 286.5,392.5 267.5,392.5 248.5,392.5C 248.5,382.167 248.5,371.833 248.5,361.5 Z"/></g>
<g><path style="opacity:1" fill="#030101" d="M 885.5,361.5 C 885.5,400.167 885.5,438.833 885.5,477.5C 864.167,477.5 842.833,477.5 821.5,477.5C 821.5,438.833 821.5,400.167 821.5,361.5C 842.833,361.5 864.167,361.5 885.5,361.5 Z"/></g>
<g><path style="opacity:1" fill="#020202" d="M 305.5,392.5 C 325.833,392.5 346.167,392.5 366.5,392.5C 366.5,409.833 366.5,427.167 366.5,444.5C 346.167,444.5 325.833,444.5 305.5,444.5C 305.5,427.167 305.5,409.833 305.5,392.5 Z"/></g>
<g><path style="opacity:1" fill="#010101" d="M 597.5,477.5 C 556.833,477.5 516.167,477.5 475.5,477.5C 475.5,457.833 475.5,438.167 475.5,418.5C 496.833,418.5 518.167,418.5 539.5,418.5C 539.5,427.167 539.5,435.833 539.5,444.5C 558.833,444.5 578.167,444.5 597.5,444.5C 597.5,455.5 597.5,466.5 597.5,477.5 Z"/></g>
<g><path style="opacity:1" fill="#000000" d="M 366.5,444.5 C 390.833,444.5 415.167,444.5 439.5,444.5C 439.5,455.5 439.5,466.5 439.5,477.5C 415.167,477.5 390.833,477.5 366.5,477.5C 366.5,466.5 366.5,455.5 366.5,444.5 Z"/></g>
<g><path style="opacity:1" fill="#050505" d="M 772.5,477.5 C 751.833,477.5 731.167,477.5 710.5,477.5C 710.5,457.833 710.5,438.167 710.5,418.5C 731.167,418.5 751.833,418.5 772.5,418.5C 772.5,438.167 772.5,457.833 772.5,477.5 Z"/></g>
</svg>
